<svg width="24" height="24" viewBox="0 0 24 24" fill="none" xmlns="http://www.w3.org/2000/svg">
<path d="M19.655 16.88L18.9097 16.7968L19.655 16.88ZM7.09628 19.6371L7.01017 20.3821L7.09628 19.6371ZM12 19.25C10.3714 19.25 8.7715 19.0757 7.18239 18.892L7.01017 20.3821C8.59541 20.5653 10.2744 20.75 12 20.75V19.25ZM16.8176 18.892C15.2285 19.0757 13.6286 19.25 12 19.25V20.75C13.7256 20.75 15.4046 20.5653 16.9898 20.3821L16.8176 18.892ZM20.4004 16.9631C20.5766 15.3838 20.75 13.715 20.75 12H19.25C19.25 13.6227 19.0859 15.217 18.9097 16.7968L20.4004 16.9631ZM20.75 12C20.75 10.285 20.5766 8.61621 20.4004 7.03688L18.9097 7.2032C19.0859 8.78304 19.25 10.3773 19.25 12H20.75ZM12 4.75C13.6286 4.75 15.2285 4.9243 16.8176 5.10796L16.9898 3.61788C15.4046 3.43466 13.7256 3.25 12 3.25V4.75ZM7.18239 5.10796C8.7715 4.9243 10.3714 4.75 12 4.75V3.25C10.2744 3.25 8.59541 3.43466 7.01017 3.61788L7.18239 5.10796ZM3.59958 7.03688C3.42338 8.61621 3.25 10.285 3.25 12H4.75C4.75 10.3773 4.91407 8.78303 5.09033 7.2032L3.59958 7.03688ZM3.25 12C3.25 13.715 3.42338 15.3838 3.59958 16.9631L5.09033 16.7968C4.91407 15.217 4.75 13.6227 4.75 12H3.25ZM20.4004 7.03688C20.2008 5.24802 18.7746 3.82415 16.9898 3.61788L16.8176 5.10796C17.9115 5.23438 18.7879 6.11219 18.9097 7.2032L20.4004 7.03688ZM16.9898 20.3821C18.7746 20.1758 20.2008 18.752 20.4004 16.9631L18.9097 16.7968C18.7879 17.8878 17.9115 18.7656 16.8176 18.892L16.9898 20.3821ZM7.01017 3.61788C5.22544 3.82415 3.79916 5.24802 3.59958 7.03688L5.09033 7.2032C5.21205 6.11219 6.08855 5.23438 7.18239 5.10796L7.01017 3.61788ZM7.18239 18.892C6.08855 18.7656 5.21205 17.8878 5.09033 16.7968L3.59958 16.9631C3.79916 18.752 5.22544 20.1758 7.01017 20.3821L7.18239 18.892Z" fill="white"/>
<path d="M12.75 8.80005C12.75 8.38584 12.4142 8.05005 12 8.05005C11.5858 8.05005 11.25 8.38584 11.25 8.80005L12.75 8.80005ZM11.25 15.2C11.25 15.6143 11.5858 15.95 12 15.95C12.4142 15.95 12.75 15.6143 12.75 15.2L11.25 15.2ZM11.25 8.80005L11.25 15.2L12.75 15.2L12.75 8.80005L11.25 8.80005Z" fill="white"/>
<path d="M15.1997 12.75C15.6139 12.75 15.9497 12.4142 15.9497 12C15.9497 11.5858 15.6139 11.25 15.1997 11.25L15.1997 12.75ZM8.79971 11.25C8.38549 11.25 8.04971 11.5858 8.04971 12C8.04971 12.4142 8.38549 12.75 8.79971 12.75L8.79971 11.25ZM15.1997 11.25L8.79971 11.25L8.79971 12.75L15.1997 12.75L15.1997 11.25Z" fill="white"/>
</svg>
