<svg width="24" height="24" viewBox="0 0 24 24" fill="none" xmlns="http://www.w3.org/2000/svg">
<path d="M14.6724 7.31048C14.9819 7.03524 15.0097 6.56118 14.7345 6.25164C14.4592 5.94209 13.9852 5.91429 13.6756 6.18952L14.6724 7.31048ZM13.6756 17.8088C13.9852 18.0841 14.4592 18.0562 14.7345 17.7467C15.0097 17.4372 14.9819 16.9631 14.6724 16.6879L13.6756 17.8088ZM13.6756 6.18952C11.8839 7.78275 11.0066 8.9 9.9378 10.4744L11.1789 11.3169C12.1937 9.82188 12.992 8.8046 14.6724 7.31048L13.6756 6.18952ZM14.6724 16.6879C12.992 15.1937 12.1937 14.1765 11.1789 12.6814L9.9378 13.5239C11.0066 15.0983 11.8839 16.2156 13.6756 17.8088L14.6724 16.6879ZM9.9378 10.4744C9.31354 11.3941 9.31354 12.6043 9.9378 13.5239L11.1789 12.6814C10.8999 12.2704 10.8999 11.7279 11.1789 11.3169L9.9378 10.4744Z" fill="#7468F0"/>
</svg>
