<svg width="25" height="24" viewBox="0 0 25 24" fill="none" xmlns="http://www.w3.org/2000/svg">
<path d="M8.30852 9.32415C8.03328 9.0146 7.55923 8.98679 7.24968 9.26203C6.94014 9.53727 6.91233 10.0113 7.18757 10.3209L8.30852 9.32415ZM18.8069 10.3209C19.0821 10.0113 19.0543 9.53727 18.7447 9.26203C18.4352 8.98679 17.9611 9.0146 17.6859 9.32415L18.8069 10.3209ZM7.18757 10.3209C8.7808 12.1127 9.89805 12.9899 11.4725 14.0587L12.315 12.8177C10.8199 11.8028 9.80264 11.0045 8.30852 9.32415L7.18757 10.3209ZM17.6859 9.32415C16.1918 11.0045 15.1745 11.8028 13.6795 12.8177L14.5219 14.0587C16.0964 12.9899 17.2136 12.1127 18.8069 10.3209L17.6859 9.32415ZM11.4725 14.0587C12.3921 14.683 13.6023 14.683 14.5219 14.0587L13.6795 12.8177C13.2684 13.0967 12.726 13.0967 12.315 12.8177L11.4725 14.0587Z" fill="#7468F0"/>
</svg>
