<svg width="25" height="24" viewBox="0 0 25 24" fill="none" xmlns="http://www.w3.org/2000/svg">
<path d="M13.3794 6.55999V9.35582H16.5207C17.9178 9.35582 19.0535 10.475 19.0802 11.8657C19.0754 10.8547 19.0174 9.85758 18.9379 8.8776C18.738 6.41561 16.7706 4.35856 14.312 4.12071C13.565 4.04844 12.8072 4 12.0405 4C11.7411 4 11.4431 4.00739 11.1465 4.0207C12.4059 4.18131 13.3794 5.25696 13.3794 6.55999Z" stroke="#7367F0" stroke-width="1.5" stroke-linejoin="round"/>
<path d="M18.9374 8.8776L19.6849 8.81691L18.9374 8.8776ZM14.3115 4.12071L14.3837 3.37419L14.3115 4.12071ZM16.4281 19.6275L16.5259 20.3711L16.4281 19.6275ZM18.7405 17.2449L17.9941 17.1712L18.7405 17.2449ZM7.6519 4.37249L7.55408 3.6289L7.6519 4.37249ZM5.33954 6.75506L6.08591 6.8288L5.33954 6.75506ZM7.6519 19.6275L7.74971 18.8839L7.6519 19.6275ZM5.33954 17.2449L4.59317 17.3187L5.33954 17.2449ZM12.04 19.25C10.5942 19.25 9.17279 19.0711 7.74971 18.8839L7.55408 20.3711C8.96974 20.5573 10.4828 20.75 12.04 20.75V19.25ZM16.3303 18.8839C14.9072 19.0711 13.4858 19.25 12.04 19.25V20.75C13.5972 20.75 15.1103 20.5573 16.5259 20.3711L16.3303 18.8839ZM19.4868 17.3187C19.6536 15.6307 19.83 13.8404 19.83 12H18.33C18.33 13.7551 18.1618 15.4735 17.9941 17.1712L19.4868 17.3187ZM19.83 12C19.83 10.9155 19.7689 9.85165 19.6849 8.81691L18.1898 8.93829C18.272 9.95022 18.33 10.9705 18.33 12H19.83ZM12.04 4.75C12.7756 4.75 13.5081 4.79649 14.2392 4.86722L14.3837 3.37419C13.6208 3.30039 12.8378 3.25 12.04 3.25V4.75ZM7.74971 5.11609C9.17279 4.92889 10.5942 4.75 12.04 4.75V3.25C10.4828 3.25 8.96974 3.44267 7.55408 3.6289L7.74971 5.11609ZM4.59317 6.68132C4.42641 8.36928 4.25 10.1596 4.25 12H5.75C5.75 10.2449 5.91818 8.52649 6.08591 6.8288L4.59317 6.68132ZM4.25 12C4.25 13.8404 4.42641 15.6307 4.59317 17.3187L6.08591 17.1712C5.91818 15.4735 5.75 13.7551 5.75 12H4.25ZM19.6849 8.81691C19.4566 6.00439 17.215 3.6481 14.3837 3.37419L14.2392 4.86722C16.3251 5.06901 18.0184 6.82684 18.1898 8.93829L19.6849 8.81691ZM16.5259 20.3711C18.0938 20.1648 19.3309 18.8968 19.4868 17.3187L17.9941 17.1712C17.9071 18.0512 17.2114 18.768 16.3303 18.8839L16.5259 20.3711ZM7.55408 3.6289C5.98617 3.83516 4.74908 5.10324 4.59317 6.68132L6.08591 6.8288C6.17285 5.94876 6.86863 5.23199 7.74971 5.11609L7.55408 3.6289ZM7.74971 18.8839C6.86863 18.768 6.17285 18.0512 6.08591 17.1712L4.59317 17.3187C4.74908 18.8968 5.98617 20.1648 7.55408 20.3711L7.74971 18.8839Z" fill="#7367F0"/>
</svg>
