<svg width="24" height="24" viewBox="0 0 24 24" fill="none" xmlns="http://www.w3.org/2000/svg">
<path d="M4.80122 7.52612C3.91676 9.73727 3.92424 15.8506 4.08021 18.8448C4.11439 19.501 4.66211 19.9966 5.31921 19.9966H13.2364C13.8935 19.9966 14.4412 19.501 14.4754 18.8448C14.6313 15.8506 14.6388 9.73727 13.7543 7.52612C13.2328 6.83075 11.9458 5.39819 10.3787 4.33832C9.71179 3.88723 8.84377 3.88723 8.17683 4.33832C6.60979 5.39819 5.32274 6.83075 4.80122 7.52612Z" stroke="#EA5455" stroke-width="1.5" stroke-linecap="round" stroke-linejoin="round"/>
<path d="M14.3924 11.0434H17.2811C18.2988 11.0434 19.1743 11.5399 19.3633 12.5398C19.6533 14.0739 19.842 16.6761 19.51 19.9966H13.2363C13.8934 19.9966 14.4412 19.501 14.4753 18.8448C14.5759 16.9138 14.6147 13.6856 14.3924 11.0434Z" stroke="#EA5455" stroke-width="1.5" stroke-linecap="round" stroke-linejoin="round"/>
<path d="M8.63818 13.2817H9.91721" stroke="#EA5455" stroke-width="1.5" stroke-linecap="round" stroke-linejoin="round"/>
<path d="M9.27783 20V17.1188" stroke="#EA5455" stroke-width="1.5" stroke-linecap="round" stroke-linejoin="round"/>
<path d="M8.63818 9.44458H9.91721" stroke="#EA5455" stroke-width="1.5" stroke-linecap="round" stroke-linejoin="round"/>
</svg>
