<svg width="16" height="16" viewBox="0 0 16 16" fill="none" xmlns="http://www.w3.org/2000/svg">
<path d="M5.79248 2L5.79248 4.4376" stroke="#A5A5A5" stroke-linecap="round"/>
<path d="M10.2007 2L10.2007 4.4376" stroke="#A5A5A5" stroke-linecap="round"/>
<path d="M13.8168 5.76891L13.3199 5.82506L13.8168 5.76891ZM11.0331 13.9318L11.0099 13.4323L11.0331 13.9318ZM2.18322 5.76891L1.68638 5.71277L2.18322 5.76891ZM4.96693 13.9318L4.94377 14.4312L4.96693 13.9318ZM8 13.5C6.93382 13.5 5.9511 13.4769 4.99009 13.4323L4.94377 14.4312C5.92074 14.4765 6.91892 14.5 8 14.5V13.5ZM11.0099 13.4323C10.0489 13.4769 9.06618 13.5 8 13.5V14.5C9.08108 14.5 10.0793 14.4765 11.0562 14.4312L11.0099 13.4323ZM14.3136 11.3423C14.416 10.4359 14.5 9.49309 14.5 8.52753H13.5C13.5 9.43765 13.4208 10.3373 13.3199 11.23L14.3136 11.3423ZM14.5 8.52753C14.5 7.56198 14.416 6.6192 14.3136 5.71277L13.3199 5.82506C13.4208 6.71772 13.5 7.61742 13.5 8.52753H14.5ZM8 3.55505C9.06618 3.55505 10.0489 3.57822 11.0099 3.62278L11.0562 2.62386C10.0793 2.57856 9.08108 2.55505 8 2.55505V3.55505ZM4.99009 3.62278C5.9511 3.57822 6.93382 3.55505 8 3.55505V2.55505C6.91892 2.55505 5.92074 2.57856 4.94377 2.62386L4.99009 3.62278ZM1.68638 5.71277C1.58395 6.6192 1.5 7.56198 1.5 8.52753H2.5C2.5 7.61742 2.57919 6.71772 2.68006 5.82506L1.68638 5.71277ZM1.5 8.52753C1.5 9.49309 1.58395 10.4359 1.68639 11.3423L2.68006 11.23C2.57919 10.3374 2.5 9.43765 2.5 8.52753H1.5ZM14.3136 5.71277C14.1245 4.03926 12.7574 2.70273 11.0562 2.62386L11.0099 3.62278C12.2017 3.67804 13.1839 4.62083 13.3199 5.82506L14.3136 5.71277ZM11.0562 14.4312C12.7574 14.3523 14.1245 13.0158 14.3136 11.3423L13.3199 11.23C13.1839 12.4342 12.2017 13.377 11.0099 13.4323L11.0562 14.4312ZM4.94377 2.62386C3.24261 2.70273 1.8755 4.03926 1.68638 5.71277L2.68006 5.82506C2.81614 4.62083 3.79831 3.67804 4.99009 3.62278L4.94377 2.62386ZM4.99009 13.4323C3.79831 13.377 2.81614 12.4342 2.68006 11.23L1.68639 11.3423C1.8755 13.0158 3.24261 14.3523 4.94377 14.4312L4.99009 13.4323Z" fill="#A5A5A5"/>
<path d="M2.28711 7.25562H13.772" stroke="#A5A5A5"/>
</svg>
