<svg width="21" height="20" viewBox="0 0 21 20" fill="none" xmlns="http://www.w3.org/2000/svg">
<path fill-rule="evenodd" clip-rule="evenodd" d="M17.2664 1.6665H3.93311C2.51644 1.6665 1.43311 2.74984 1.43311 4.1665V9.1665C1.43311 14.2498 5.51644 18.3332 10.5998 18.3332C15.6831 18.3332 19.7664 14.2498 19.7664 9.1665V4.1665C19.7664 2.74984 18.6831 1.6665 17.2664 1.6665ZM18.0998 9.1665C18.0998 13.3332 14.7664 16.6665 10.5998 16.6665C6.43311 16.6665 3.09977 13.3332 3.09977 9.1665V4.1665C3.09977 3.6665 3.43311 3.33317 3.93311 3.33317H17.2664C17.7664 3.33317 18.0998 3.6665 18.0998 4.1665V9.1665ZM14.5164 8.9165C14.8498 8.58317 14.8498 8.08317 14.5164 7.74984C14.1831 7.4165 13.6831 7.4165 13.3498 7.74984L10.5998 10.4998L7.84977 7.74984C7.51644 7.4165 7.01644 7.4165 6.6831 7.74984C6.34977 8.08317 6.34977 8.58317 6.6831 8.9165L10.0164 12.2498C10.1831 12.4165 10.3498 12.4998 10.5998 12.4998C10.8498 12.4998 11.0164 12.4165 11.1831 12.2498L14.5164 8.9165Z" fill="black"/>
<mask id="mask0_777_2381" style="mask-type:alpha" maskUnits="userSpaceOnUse" x="1" y="1" width="19" height="18">
<path fill-rule="evenodd" clip-rule="evenodd" d="M17.2664 1.6665H3.93311C2.51644 1.6665 1.43311 2.74984 1.43311 4.1665V9.1665C1.43311 14.2498 5.51644 18.3332 10.5998 18.3332C15.6831 18.3332 19.7664 14.2498 19.7664 9.1665V4.1665C19.7664 2.74984 18.6831 1.6665 17.2664 1.6665ZM18.0998 9.1665C18.0998 13.3332 14.7664 16.6665 10.5998 16.6665C6.43311 16.6665 3.09977 13.3332 3.09977 9.1665V4.1665C3.09977 3.6665 3.43311 3.33317 3.93311 3.33317H17.2664C17.7664 3.33317 18.0998 3.6665 18.0998 4.1665V9.1665ZM14.5164 8.9165C14.8498 8.58317 14.8498 8.08317 14.5164 7.74984C14.1831 7.4165 13.6831 7.4165 13.3498 7.74984L10.5998 10.4998L7.84977 7.74984C7.51644 7.4165 7.01644 7.4165 6.6831 7.74984C6.34977 8.08317 6.34977 8.58317 6.6831 8.9165L10.0164 12.2498C10.1831 12.4165 10.3498 12.4998 10.5998 12.4998C10.8498 12.4998 11.0164 12.4165 11.1831 12.2498L14.5164 8.9165Z" fill="white"/>
</mask>
<g mask="url(#mask0_777_2381)">
<rect x="0.599609" width="20" height="20" fill="#7367F0"/>
</g>
</svg>
