<svg width="21" height="20" viewBox="0 0 21 20" fill="none" xmlns="http://www.w3.org/2000/svg">
<path fill-rule="evenodd" clip-rule="evenodd" d="M12.6828 9.16667H11.4328V5H14.7661C15.2661 5 15.5994 4.66667 15.5994 4.16667C15.5994 3.66667 15.2661 3.33333 14.7661 3.33333H11.4328V0.833333C11.4328 0.333333 11.0994 0 10.5994 0C10.0994 0 9.76611 0.333333 9.76611 0.833333V3.33333H8.51611C6.43278 3.33333 4.76611 5 4.76611 7.08333C4.76611 9.16667 6.43278 10.8333 8.51611 10.8333H9.76611V15H5.59945C5.09945 15 4.76611 15.3333 4.76611 15.8333C4.76611 16.3333 5.09945 16.6667 5.59945 16.6667H9.76611V19.1667C9.76611 19.6667 10.0994 20 10.5994 20C11.0994 20 11.4328 19.6667 11.4328 19.1667V16.6667H12.6828C14.7661 16.6667 16.4328 15 16.4328 12.9167C16.4328 10.8333 14.7661 9.16667 12.6828 9.16667ZM8.51611 9.16667C7.34945 9.16667 6.43278 8.25 6.43278 7.08333C6.43278 5.91667 7.34945 5 8.51611 5H9.76611V9.16667H8.51611ZM11.4328 15H12.6828C13.8494 15 14.7661 14.0833 14.7661 12.9167C14.7661 11.75 13.8494 10.8333 12.6828 10.8333H11.4328V15Z" fill="black"/>
<mask id="mask0_777_2406" style="mask-type:alpha" maskUnits="userSpaceOnUse" x="4" y="0" width="13" height="20">
<path fill-rule="evenodd" clip-rule="evenodd" d="M12.6828 9.16667H11.4328V5H14.7661C15.2661 5 15.5994 4.66667 15.5994 4.16667C15.5994 3.66667 15.2661 3.33333 14.7661 3.33333H11.4328V0.833333C11.4328 0.333333 11.0994 0 10.5994 0C10.0994 0 9.76611 0.333333 9.76611 0.833333V3.33333H8.51611C6.43278 3.33333 4.76611 5 4.76611 7.08333C4.76611 9.16667 6.43278 10.8333 8.51611 10.8333H9.76611V15H5.59945C5.09945 15 4.76611 15.3333 4.76611 15.8333C4.76611 16.3333 5.09945 16.6667 5.59945 16.6667H9.76611V19.1667C9.76611 19.6667 10.0994 20 10.5994 20C11.0994 20 11.4328 19.6667 11.4328 19.1667V16.6667H12.6828C14.7661 16.6667 16.4328 15 16.4328 12.9167C16.4328 10.8333 14.7661 9.16667 12.6828 9.16667ZM8.51611 9.16667C7.34945 9.16667 6.43278 8.25 6.43278 7.08333C6.43278 5.91667 7.34945 5 8.51611 5H9.76611V9.16667H8.51611ZM11.4328 15H12.6828C13.8494 15 14.7661 14.0833 14.7661 12.9167C14.7661 11.75 13.8494 10.8333 12.6828 10.8333H11.4328V15Z" fill="white"/>
</mask>
<g mask="url(#mask0_777_2406)">
<rect x="0.599609" width="20" height="20" fill="#EA5455"/>
</g>
</svg>
