<svg width="24" height="24" viewBox="0 0 24 24" fill="none" xmlns="http://www.w3.org/2000/svg">
<path d="M12.0002 18.0738C15.3572 18.0738 18.0785 15.3525 18.0785 11.9955C18.0785 8.63853 15.3572 5.91718 12.0002 5.91718C8.64323 5.91718 5.92188 8.63853 5.92188 11.9955C5.92188 15.3525 8.64323 18.0738 12.0002 18.0738Z" stroke="#00CFE8" stroke-width="1.5" stroke-linecap="round" stroke-linejoin="round"/>
<path d="M13.5932 10.0837C13.5932 10.0837 12.9358 9.35084 11.8695 9.44243C10.8032 9.53402 10.2892 10.1891 10.2892 10.846C10.2892 12.762 13.5932 11.4342 13.5932 13.399C13.5932 14.4119 11.4015 15.1269 10.0957 13.9352" stroke="#00CFE8" stroke-width="1.5" stroke-linecap="round" stroke-linejoin="round"/>
<path d="M12 4L12 6.89256" stroke="#00CFE8" stroke-width="1.5" stroke-linecap="round" stroke-linejoin="round"/>
<path d="M12 17.1074L12 20" stroke="#00CFE8" stroke-width="1.5" stroke-linecap="round" stroke-linejoin="round"/>
<path d="M20 12L17.1074 12" stroke="#00CFE8" stroke-width="1.5" stroke-linecap="round" stroke-linejoin="round"/>
<path d="M6.89258 12L4.00002 12" stroke="#00CFE8" stroke-width="1.5" stroke-linecap="round" stroke-linejoin="round"/>
</svg>
