<svg width="24" height="24" viewBox="0 0 24 24" fill="none" xmlns="http://www.w3.org/2000/svg">
<path d="M4.10535 17.7748C4.18271 18.4979 4.76434 19.0795 5.48714 19.1601C6.02401 19.2199 6.57524 19.2713 7.13726 19.2713C7.69927 19.2713 8.2505 19.2199 8.78737 19.1601C9.51017 19.0795 10.0918 18.4979 10.1692 17.7748C10.2263 17.2409 10.2745 16.6928 10.2745 16.1341C10.2745 15.5753 10.2263 15.0272 10.1692 14.4934C10.0918 13.7703 9.51017 13.1886 8.78737 13.1081C8.2505 13.0482 7.69927 12.9968 7.13726 12.9968C6.57524 12.9968 6.02401 13.0482 5.48714 13.1081C4.76434 13.1886 4.18271 13.7703 4.10534 14.4934C4.04823 15.0272 4 15.5753 4 16.1341C4 16.6928 4.04823 17.2409 4.10535 17.7748Z" stroke="#28C76F" stroke-width="1.5"/>
<path d="M8.96765 8.77793C9.04502 9.50108 9.62664 10.0827 10.3494 10.1633C10.8863 10.2231 11.4375 10.2745 11.9996 10.2745C12.5616 10.2745 13.1128 10.2231 13.6497 10.1633C14.3725 10.0827 14.9541 9.50108 15.0315 8.77793C15.0886 8.24409 15.1368 7.69602 15.1368 7.13725C15.1368 6.57849 15.0886 6.03042 15.0315 5.49658C14.9541 4.77343 14.3725 4.19181 13.6497 4.11124C13.1128 4.0514 12.5616 4 11.9996 4C11.4375 4 10.8863 4.0514 10.3494 4.11124C9.62664 4.19181 9.04502 4.77343 8.96765 5.49658C8.91053 6.03042 8.8623 6.57849 8.8623 7.13725C8.8623 7.69602 8.91053 8.24409 8.96765 8.77793Z" stroke="#28C76F" stroke-width="1.5"/>
<path d="M13.8309 17.7748C13.9083 18.4979 14.4899 19.0795 15.2127 19.1601C15.7496 19.2199 16.3008 19.2713 16.8628 19.2713C17.4249 19.2713 17.9761 19.2199 18.513 19.1601C19.2358 19.0795 19.8174 18.4979 19.8948 17.7748C19.9519 17.2409 20.0001 16.6928 20.0001 16.1341C20.0001 15.5753 19.9519 15.0272 19.8948 14.4934C19.8174 13.7703 19.2358 13.1886 18.513 13.1081C17.9761 13.0482 17.4249 12.9968 16.8628 12.9968C16.3008 12.9968 15.7496 13.0482 15.2127 13.1081C14.4899 13.1886 13.9083 13.7703 13.8309 14.4934C13.7738 15.0272 13.7256 15.5753 13.7256 16.1341C13.7256 16.6928 13.7738 17.2409 13.8309 17.7748Z" stroke="#28C76F" stroke-width="1.5"/>
</svg>
