<svg width="16" height="16" viewBox="0 0 16 16" fill="none" xmlns="http://www.w3.org/2000/svg">
<path d="M14.7326 11.9592L13.9871 11.8774L14.7326 11.9592ZM8 14.25C6.68753 14.25 5.39376 14.12 4.10484 13.973L3.93488 15.4633C5.22939 15.6109 6.59584 15.75 8 15.75V14.25ZM11.8952 13.973C10.6062 14.12 9.31248 14.25 8 14.25V15.75C9.40417 15.75 10.7706 15.6109 12.0651 15.4633L11.8952 13.973ZM15.4781 12.041C15.6196 10.7521 15.75 9.39464 15.75 8H14.25C14.25 9.30755 14.1277 10.5963 13.9871 11.8774L15.4781 12.041ZM15.75 8C15.75 6.60536 15.6196 5.24795 15.4781 3.95898L13.9871 4.12262C14.1277 5.40369 14.25 6.69245 14.25 8H15.75ZM8 1.75C9.31248 1.75 10.6062 1.88004 11.8952 2.02703L12.0651 0.536695C10.7706 0.389067 9.40417 0.25 8 0.25V1.75ZM4.10484 2.02703C5.39376 1.88004 6.68753 1.75 8 1.75V0.25C6.59584 0.25 5.22939 0.389067 3.93488 0.536694L4.10484 2.02703ZM0.521895 3.95898C0.380426 5.24795 0.25 6.60536 0.25 8H1.75C1.75 6.69245 1.87234 5.40368 2.01294 4.12262L0.521895 3.95898ZM0.25 8C0.25 9.39464 0.380426 10.7521 0.521895 12.041L2.01294 11.8774C1.87234 10.5963 1.75 9.30755 1.75 8H0.25ZM15.4781 3.95898C15.2816 2.16882 13.8511 0.740366 12.0651 0.536695L11.8952 2.02703C12.9883 2.1517 13.8674 3.03234 13.9871 4.12262L15.4781 3.95898ZM12.0651 15.4633C13.8511 15.2596 15.2816 13.8312 15.4781 12.041L13.9871 11.8774C13.8674 12.9677 12.9883 13.8483 11.8952 13.973L12.0651 15.4633ZM3.93488 0.536694C2.14893 0.740365 0.71837 2.16882 0.521895 3.95898L2.01294 4.12262C2.1326 3.03234 3.0117 2.1517 4.10484 2.02703L3.93488 0.536694ZM4.10484 13.973C3.0117 13.8483 2.1326 12.9677 2.01294 11.8774L0.521895 12.041C0.718371 13.8312 2.14893 15.2596 3.93488 15.4633L4.10484 13.973Z" fill="#B9B9C3"/>
<path d="M7.99576 8.73754C7.99576 8.33316 8.32465 8.08511 8.9049 7.6974C9.44312 7.33777 9.72701 6.87127 9.60073 6.23641C9.47445 5.60154 8.94988 5.07697 8.31501 4.95068C7.31844 4.75245 6.35938 5.53953 6.35938 6.55562" stroke="#B9B9C3" stroke-width="1.5" stroke-linecap="round" stroke-linejoin="round"/>
<path d="M7.99547 11.0664C7.91815 11.0664 7.85547 11.0037 7.85547 10.9264C7.85547 10.8491 7.91815 10.7864 7.99547 10.7864" stroke="#B9B9C3" stroke-width="1.5"/>
<path d="M7.99574 11.0664C8.07306 11.0664 8.13574 11.0037 8.13574 10.9264C8.13574 10.8491 8.07306 10.7864 7.99574 10.7864" stroke="#B9B9C3" stroke-width="1.5"/>
</svg>
