<svg width="18" height="18" viewBox="0 0 18 18" fill="none" xmlns="http://www.w3.org/2000/svg">
<path d="M1 4.83398H17" stroke="#A5A5A5" stroke-linecap="round"/>
<path d="M14.7478 4.83398H3.24625L3.16394 6.32218C3.00623 9.1735 3.14023 12.0335 3.56384 14.8575C3.74857 16.0891 4.80647 17.0001 6.05176 17.0001H11.9423C13.1876 17.0001 14.2455 16.0891 14.4302 14.8575C14.8539 12.0335 14.9879 9.1735 14.8302 6.32218L14.7478 4.83398Z" stroke="#A5A5A5" stroke-linecap="round" stroke-linejoin="round"/>
<path d="M5.80273 4.83387V4.19489C5.80273 3.34755 6.13934 2.53492 6.7385 1.93576C7.33765 1.3366 8.15029 1 8.99762 1C9.84496 1 10.6576 1.3366 11.2567 1.93576C11.8559 2.53492 12.1925 3.34755 12.1925 4.19489V4.83387" stroke="#A5A5A5" stroke-linecap="round" stroke-linejoin="round"/>
<path d="M7.08105 8.25586V13.5523" stroke="#A5A5A5" stroke-linecap="round" stroke-linejoin="round"/>
<path d="M10.9141 8.25586V13.5523" stroke="#A5A5A5" stroke-linecap="round" stroke-linejoin="round"/>
</svg>
