<?xml version="1.0" encoding="UTF-8" standalone="no"?>
<svg
   width="26"
   height="28"
   viewBox="0 0 26 28"
   fill="none"
   version="1.1"
   id="svg8"
   sodipodi:docname="wallet-icon.svg"
   inkscape:version="1.2.1 (9c6d41e, 2022-07-14)"
   xmlns:inkscape="http://www.inkscape.org/namespaces/inkscape"
   xmlns:sodipodi="http://sodipodi.sourceforge.net/DTD/sodipodi-0.dtd"
   xmlns="http://www.w3.org/2000/svg"
   xmlns:svg="http://www.w3.org/2000/svg">
  <defs
     id="defs12" />
  <sodipodi:namedview
     id="namedview10"
     pagecolor="#ffffff"
     bordercolor="#999999"
     borderopacity="1"
     inkscape:showpageshadow="0"
     inkscape:pageopacity="0"
     inkscape:pagecheckerboard="0"
     inkscape:deskcolor="#d1d1d1"
     showgrid="false"
     inkscape:zoom="8.4285714"
     inkscape:cx="13.110169"
     inkscape:cy="14"
     inkscape:window-width="1309"
     inkscape:window-height="456"
     inkscape:window-x="0"
     inkscape:window-y="25"
     inkscape:window-maximized="0"
     inkscape:current-layer="svg8" />
  <path
     d="M22.0235 13.5C21.9409 12.8553 21.838 12.2822 21.731 11.6747C21.4087 9.844 19.9446 8.37295 18.1068 8.09413C16.282 7.81726 14.6341 7.54541 12.1033 7.54541C9.57248 7.54541 7.92465 7.81726 6.0998 8.09413C4.262 8.37295 2.79795 9.844 2.47558 11.6747C2.22686 13.0871 2 14.3137 2 16.6865C2 19.0593 2.22686 20.2859 2.47558 21.6983C2.79795 23.529 4.262 25 6.09981 25.2789C7.92465 25.5557 9.57248 25.8276 12.1033 25.8276C14.6341 25.8276 16.282 25.5557 18.1068 25.2789C19.9446 25 21.4087 23.529 21.731 21.6983C21.8582 20.9763 21.9796 20.3028 22.0679 19.5"
     stroke="white"
     stroke-width="2.5"
     id="path2" />
  <path
     d="M14.0278 17.2269V15.9536C14.0278 14.711 15.0352 13.7036 16.2778 13.7036H23.6122C24.1645 13.7036 24.6122 14.1513 24.6122 14.7036V18.4769C24.6122 19.0292 24.1645 19.4769 23.6122 19.4769H16.2778C15.0352 19.4769 14.0278 18.4696 14.0278 17.2269Z"
     stroke="white"
     stroke-width="2.5"
     stroke-linecap="round"
     id="path4" />
  <path
     d="M4.94678 8.44141L15.1591 2.2774C16.1444 1.68269 17.4279 2.08001 17.9049 3.12738L20.9661 9.84908"
     stroke="white"
     stroke-width="2.5"
     stroke-linecap="round"
     id="path6" />
</svg>
